<svg xmlns="http://www.w3.org/2000/svg" viewBox="0 0 1000 1000" xml:space="preserve"><path d="M951.5 309.3c-24.7-58.4-60-110.7-105-155.7-45-45-97.4-80.3-155.7-105C630.3 23 566.1 10 500 10c-66.1 0-130.3 13-190.7 38.5-58.4 24.7-110.8 60-155.7 105-45 45-80.3 97.4-105 155.7C23 369.7 10 433.9 10 500c0 66.1 13 130.3 38.5 190.7 24.7 58.4 60 110.7 105 155.7 45 45 97.4 80.3 155.7 105C369.7 977 433.9 990 500 990c66.1 0 130.3-13 190.7-38.5 58.4-24.7 110.8-60 155.7-105 45-45 80.3-97.4 105-155.7C977 630.3 990 566.1 990 500c0-66.1-13-130.3-38.5-190.7zM500 922.5C267.1 922.5 77.5 733 77.5 500S267.1 77.5 500 77.5 922.5 267 922.5 500 732.9 922.5 500 922.5zm152.7-628-157 157.3-157.3-157c-13.6-13.6-35.7-13.6-49.3 0-13.6 13.6-13.6 35.7 0 49.3l157.3 157-157 157.3c-13.6 13.6-13.6 35.7.1 49.3 13.6 13.6 35.7 13.6 49.3 0l157-157.3 157.3 157c13.6 13.6 35.7 13.6 49.3 0 13.6-13.6 13.5-35.7-.1-49.3L545 501.1l157-157.3c13.6-13.6 13.6-35.7-.1-49.3-13.6-13.6-35.6-13.6-49.2 0z"/></svg>